<svg width="26" height="22" viewBox="0 0 26 22" fill="none" xmlns="http://www.w3.org/2000/svg">
<path d="M22.0101 3.42306C20.3529 2.66268 18.5759 2.10248 16.7179 1.78162C16.6841 1.77543 16.6503 1.7909 16.6328 1.82185C16.4043 2.22834 16.1511 2.75863 15.9739 3.17543C13.9754 2.87625 11.9873 2.87625 10.0298 3.17543C9.85254 2.74936 9.59019 2.22834 9.36062 1.82185C9.34319 1.79193 9.30939 1.77646 9.27555 1.78162C7.41857 2.10145 5.64152 2.66166 3.98335 3.42306C3.96899 3.42924 3.95669 3.43957 3.94852 3.45297C0.577841 8.4887 -0.345529 13.4006 0.107445 18.2517C0.109495 18.2754 0.122817 18.2981 0.141265 18.3126C2.36514 19.9457 4.51935 20.9372 6.63355 21.5944C6.66739 21.6047 6.70324 21.5923 6.72477 21.5645C7.22489 20.8815 7.6707 20.1614 8.05293 19.4041C8.07549 19.3597 8.05396 19.3071 8.00785 19.2896C7.30073 19.0213 6.6274 18.6943 5.97971 18.3229C5.92848 18.293 5.92437 18.2197 5.9715 18.1846C6.1078 18.0825 6.24414 17.9762 6.37428 17.8689C6.39783 17.8493 6.43064 17.8452 6.45833 17.8576C10.7134 19.8003 15.32 19.8003 19.5249 17.8576C19.5525 17.8442 19.5854 17.8483 19.6099 17.8679C19.7401 17.9752 19.8764 18.0825 20.0137 18.1846C20.0609 18.2197 20.0578 18.293 20.0066 18.3229C19.3589 18.7015 18.6855 19.0213 17.9774 19.2886C17.9313 19.3061 17.9108 19.3597 17.9333 19.4041C18.3238 20.1603 18.7696 20.8804 19.2605 21.5634C19.281 21.5923 19.3179 21.6047 19.3517 21.5944C21.4761 20.9372 23.6303 19.9457 25.8542 18.3126C25.8737 18.2981 25.886 18.2765 25.8881 18.2527C26.4302 12.6444 24.98 7.77271 22.0439 3.454C22.0367 3.43957 22.0245 3.42924 22.0101 3.42306ZM8.68836 15.2979C7.40729 15.2979 6.35173 14.1218 6.35173 12.6774C6.35173 11.233 7.38682 10.0569 8.68836 10.0569C10.0001 10.0569 11.0455 11.2433 11.025 12.6774C11.025 14.1218 9.98986 15.2979 8.68836 15.2979ZM17.3276 15.2979C16.0466 15.2979 14.991 14.1218 14.991 12.6774C14.991 11.233 16.0261 10.0569 17.3276 10.0569C18.6394 10.0569 19.6847 11.2433 19.6643 12.6774C19.6643 14.1218 18.6394 15.2979 17.3276 15.2979Z" fill="#656363"/>
</svg>
