<svg width="23" height="18" viewBox="0 0 23 18" fill="none" xmlns="http://www.w3.org/2000/svg">
<path d="M18.5273 2.59853C18.5213 2.58742 18.5116 2.57887 18.4998 2.57448C17.1907 1.97375 15.8092 1.54522 14.39 1.29961C14.3772 1.29728 14.3641 1.299 14.3523 1.30455C14.3406 1.3101 14.331 1.31919 14.3247 1.33054C14.1364 1.67221 13.9656 2.02315 13.8127 2.38204C12.282 2.14971 10.725 2.14971 9.1943 2.38204C9.04081 2.02227 8.86759 1.67123 8.67542 1.33054C8.66879 1.31953 8.65906 1.31072 8.64745 1.30522C8.63583 1.29972 8.62285 1.29777 8.61013 1.29961C7.1884 1.54412 5.80455 1.97267 4.49346 2.57448C4.48196 2.57935 4.47233 2.58778 4.46597 2.59853C1.84752 6.51246 1.12933 10.3267 1.47983 14.0964C1.48083 14.1058 1.48378 14.115 1.48852 14.1233C1.49325 14.1316 1.49965 14.1388 1.50732 14.1445C3.03257 15.2726 4.7383 16.1336 6.5518 16.6908C6.56483 16.6948 6.5788 16.6946 6.59174 16.6903C6.60469 16.686 6.61595 16.6777 6.62396 16.6667C7.01306 16.137 7.35786 15.5761 7.65485 14.9898C7.6588 14.9817 7.66105 14.9729 7.66144 14.9639C7.66184 14.955 7.66038 14.946 7.65716 14.9376C7.65393 14.9292 7.64901 14.9216 7.6427 14.9152C7.63639 14.9088 7.62882 14.9038 7.62048 14.9004C7.07567 14.6917 6.54826 14.44 6.04323 14.1479C6.0343 14.1424 6.02682 14.1349 6.02141 14.1259C6.01601 14.117 6.01283 14.1069 6.01216 14.0964C6.01149 14.086 6.01333 14.0755 6.01754 14.0659C6.02175 14.0564 6.0282 14.0479 6.03635 14.0414C6.14288 13.9623 6.2494 13.8799 6.34906 13.7974C6.35785 13.7897 6.36865 13.7846 6.38021 13.7828C6.39176 13.781 6.4036 13.7825 6.41435 13.7871C9.72005 15.2956 13.3007 15.2956 16.5686 13.7871C16.579 13.782 16.5907 13.7799 16.6022 13.7811C16.6138 13.7824 16.6247 13.7868 16.6339 13.794C16.7335 13.8764 16.84 13.9623 16.9466 14.0414C16.9547 14.0479 16.9612 14.0564 16.9654 14.0659C16.9696 14.0755 16.9714 14.086 16.9708 14.0964C16.9701 14.1069 16.9669 14.117 16.9615 14.1259C16.9561 14.1349 16.9486 14.1424 16.9397 14.1479C16.436 14.4416 15.9083 14.6921 15.3624 14.897C15.3541 14.9003 15.3465 14.9054 15.3402 14.9118C15.3339 14.9182 15.329 14.9258 15.3258 14.9342C15.3225 14.9426 15.3211 14.9515 15.3215 14.9605C15.3219 14.9695 15.3241 14.9783 15.3281 14.9864C15.6303 15.5698 15.9748 16.1302 16.359 16.6633C16.367 16.6743 16.3782 16.6826 16.3912 16.6869C16.4041 16.6912 16.4181 16.6913 16.4311 16.6873C18.2499 16.1327 19.9605 15.2716 21.4893 14.141C21.4972 14.1355 21.5037 14.1283 21.5084 14.12C21.5132 14.1117 21.5161 14.1025 21.5168 14.0929C21.9361 9.73914 20.809 5.95578 18.5273 2.59853ZM8.14967 11.8009C7.15315 11.8009 6.33531 10.8869 6.33531 9.76663C6.33531 8.6464 7.1394 7.72891 8.14967 7.72891C9.17025 7.72891 9.98121 8.64983 9.96403 9.76319C9.96403 10.8869 9.15994 11.8009 8.14967 11.8009ZM14.8642 11.8009C13.8677 11.8009 13.0498 10.8869 13.0498 9.76663C13.0498 8.6464 13.8505 7.72891 14.8642 7.72891C15.8848 7.72891 16.6957 8.64983 16.6785 9.76319C16.6785 10.8869 15.8813 11.8009 14.8642 11.8009Z" fill="#867F82"/>
</svg>
