<svg width="26" height="26" viewBox="0 0 26 26" fill="none" xmlns="http://www.w3.org/2000/svg">
<g clip-path="url(#clip0_28_79)">
<path d="M16.9061 9.09375C17.3376 9.09375 17.6874 9.44353 17.6874 9.875C17.6874 11.0418 17.1748 12.0899 16.3651 12.8045C16.0417 13.09 15.5479 13.0592 15.2624 12.7357C14.9769 12.4122 15.0077 11.9185 15.3312 11.633C15.8191 11.2024 16.1249 10.5749 16.1249 9.875C16.1249 9.44353 16.4746 9.09375 16.9061 9.09375Z" fill="#6B6B6B"/>
<path fill-rule="evenodd" clip-rule="evenodd" d="M13 2.84375C7.39086 2.84375 2.84375 7.39086 2.84375 13C2.84375 18.6091 7.39086 23.1562 13 23.1562C18.6091 23.1562 23.1562 18.6091 23.1562 13C23.1562 7.39086 18.6091 2.84375 13 2.84375ZM5.26552 16.7502C6.65829 19.6173 9.59834 21.5938 13 21.5938C13.6899 21.5938 14.3607 21.5125 15.0035 21.359C14.7046 20.5628 13.942 20.0312 13.0863 20.0312C12.5857 20.0312 12.1584 19.6693 12.0761 19.1755L12.0001 18.7195C11.9021 18.1316 12.261 17.5638 12.8341 17.4001L13.8641 17.1058C14.3091 16.9786 14.6804 16.6705 14.8874 16.2565L14.9254 16.1805C15.1818 15.6677 15.7059 15.3438 16.2793 15.3438C16.6807 15.3438 17.0657 15.5032 17.3496 15.7871L17.6875 16.125H18.342C19.2155 16.125 20.0042 16.609 20.4071 17.3601C21.1611 16.0819 21.5938 14.5915 21.5938 13C21.5938 8.52271 18.1698 4.84512 13.7975 4.44277C13.8437 4.71669 13.9863 4.96771 14.2029 5.14826L15.316 6.07587C15.7761 6.45927 15.8731 7.12787 15.5409 7.62617L15.0086 8.42465C14.7195 8.85831 14.2941 9.18323 13.7996 9.34805L13.6514 9.39743C12.9299 9.63795 12.6346 10.4987 13.0565 11.1316C13.4413 11.7088 13.2331 12.4928 12.6126 12.8031L9.875 14.1719L10.316 15.2745C10.5083 15.7552 10.3 16.3031 9.83691 16.5347C9.40656 16.7498 8.88391 16.6265 8.59522 16.2415L7.88768 15.2982C7.36499 14.6012 6.29161 14.698 5.90202 15.4772L5.26552 16.7502Z" fill="#6B6B6B"/>
</g>
<defs>
<clipPath id="clip0_28_79">
<rect width="25" height="25" fill="white" transform="translate(0.5 0.5)"/>
</clipPath>
</defs>
</svg>
