<svg width="26" height="26" viewBox="0 0 26 26" fill="none" xmlns="http://www.w3.org/2000/svg">
<g clip-path="url(#clip0_28_87)">
<g clip-path="url(#clip1_28_87)">
<path d="M13.7812 13.7812C13.7812 14.2127 13.4315 14.5625 13 14.5625C12.5685 14.5625 12.2188 14.2127 12.2188 13.7812C12.2188 13.3498 12.5685 13 13 13C13.4315 13 13.7812 13.3498 13.7812 13.7812Z" fill="#949193"/>
<path d="M8.3125 16.9062C8.74397 16.9062 9.09375 16.5565 9.09375 16.125C9.09375 15.6935 8.74397 15.3438 8.3125 15.3438C7.88103 15.3438 7.53125 15.6935 7.53125 16.125C7.53125 16.5565 7.88103 16.9062 8.3125 16.9062Z" fill="#949193"/>
<path d="M9.09375 18.4688C9.09375 18.9002 8.74397 19.25 8.3125 19.25C7.88103 19.25 7.53125 18.9002 7.53125 18.4688C7.53125 18.0373 7.88103 17.6875 8.3125 17.6875C8.74397 17.6875 9.09375 18.0373 9.09375 18.4688Z" fill="#949193"/>
<path d="M10.6562 16.9062C11.0877 16.9062 11.4375 16.5565 11.4375 16.125C11.4375 15.6935 11.0877 15.3438 10.6562 15.3438C10.2248 15.3438 9.875 15.6935 9.875 16.125C9.875 16.5565 10.2248 16.9062 10.6562 16.9062Z" fill="#949193"/>
<path d="M11.4375 18.4688C11.4375 18.9002 11.0877 19.25 10.6562 19.25C10.2248 19.25 9.875 18.9002 9.875 18.4688C9.875 18.0373 10.2248 17.6875 10.6562 17.6875C11.0877 17.6875 11.4375 18.0373 11.4375 18.4688Z" fill="#949193"/>
<path d="M13 16.9062C13.4315 16.9062 13.7812 16.5565 13.7812 16.125C13.7812 15.6935 13.4315 15.3438 13 15.3438C12.5685 15.3438 12.2188 15.6935 12.2188 16.125C12.2188 16.5565 12.5685 16.9062 13 16.9062Z" fill="#949193"/>
<path d="M13.7812 18.4688C13.7812 18.9002 13.4315 19.25 13 19.25C12.5685 19.25 12.2188 18.9002 12.2188 18.4688C12.2188 18.0373 12.5685 17.6875 13 17.6875C13.4315 17.6875 13.7812 18.0373 13.7812 18.4688Z" fill="#949193"/>
<path d="M15.3438 16.9062C15.7752 16.9062 16.125 16.5565 16.125 16.125C16.125 15.6935 15.7752 15.3438 15.3438 15.3438C14.9123 15.3438 14.5625 15.6935 14.5625 16.125C14.5625 16.5565 14.9123 16.9062 15.3438 16.9062Z" fill="#949193"/>
<path d="M16.125 18.4688C16.125 18.9002 15.7752 19.25 15.3438 19.25C14.9123 19.25 14.5625 18.9002 14.5625 18.4688C14.5625 18.0373 14.9123 17.6875 15.3438 17.6875C15.7752 17.6875 16.125 18.0373 16.125 18.4688Z" fill="#949193"/>
<path d="M17.6875 16.9062C18.119 16.9062 18.4688 16.5565 18.4688 16.125C18.4688 15.6935 18.119 15.3438 17.6875 15.3438C17.256 15.3438 16.9062 15.6935 16.9062 16.125C16.9062 16.5565 17.256 16.9062 17.6875 16.9062Z" fill="#949193"/>
<path d="M16.125 13.7812C16.125 14.2127 15.7752 14.5625 15.3438 14.5625C14.9123 14.5625 14.5625 14.2127 14.5625 13.7812C14.5625 13.3498 14.9123 13 15.3438 13C15.7752 13 16.125 13.3498 16.125 13.7812Z" fill="#949193"/>
<path d="M17.6875 14.5625C18.119 14.5625 18.4688 14.2127 18.4688 13.7812C18.4688 13.3498 18.119 13 17.6875 13C17.256 13 16.9062 13.3498 16.9062 13.7812C16.9062 14.2127 17.256 14.5625 17.6875 14.5625Z" fill="#949193"/>
<path fill-rule="evenodd" clip-rule="evenodd" d="M7.53125 2.84375C7.96272 2.84375 8.3125 3.19353 8.3125 3.625V5.1875H17.6875V3.625C17.6875 3.19353 18.0373 2.84375 18.4688 2.84375C18.9002 2.84375 19.25 3.19353 19.25 3.625V5.1875H20.0312C21.7571 5.1875 23.1562 6.58661 23.1562 8.3125V20.0312C23.1562 21.7571 21.7571 23.1562 20.0312 23.1562H5.96875C4.24286 23.1562 2.84375 21.7571 2.84375 20.0312V8.3125C2.84375 6.58661 4.24286 5.1875 5.96875 5.1875H6.75V3.625C6.75 3.19353 7.09978 2.84375 7.53125 2.84375ZM21.5938 12.2188C21.5938 11.3558 20.8942 10.6562 20.0312 10.6562H5.96875C5.10581 10.6562 4.40625 11.3558 4.40625 12.2188V20.0312C4.40625 20.8942 5.10581 21.5938 5.96875 21.5938H20.0312C20.8942 21.5938 21.5938 20.8942 21.5938 20.0312V12.2188Z" fill="#949193"/>
</g>
</g>
<defs>
<clipPath id="clip0_28_87">
<rect width="25" height="25" fill="white" transform="translate(0.5 0.5)"/>
</clipPath>
<clipPath id="clip1_28_87">
<rect width="25" height="25" fill="white" transform="translate(0.5 0.5)"/>
</clipPath>
</defs>
</svg>
