<svg width="26" height="26" viewBox="0 0 26 26" fill="none" xmlns="http://www.w3.org/2000/svg">
<g clip-path="url(#clip0_28_69)">
<g clip-path="url(#clip1_28_69)">
<path fill-rule="evenodd" clip-rule="evenodd" d="M6.20638 6.29049C6.40811 5.63488 7.01384 5.1875 7.69978 5.1875H9.875C10.3065 5.1875 10.6562 4.83772 10.6562 4.40625C10.6562 3.97478 10.3065 3.625 9.875 3.625H7.69978C6.32789 3.625 5.11643 4.51976 4.71297 5.83098L2.20069 13.9959C2.10908 14.2936 2.0625 14.6034 2.0625 14.9149V19.25C2.0625 20.9759 3.46161 22.375 5.1875 22.375H20.8125C22.5384 22.375 23.9375 20.9759 23.9375 19.25V14.9149C23.9375 14.6034 23.8909 14.2936 23.7993 13.9959L21.287 5.83098C20.8836 4.51976 19.6721 3.625 18.3002 3.625H16.125C15.6935 3.625 15.3438 3.97478 15.3438 4.40625C15.3438 4.83772 15.6935 5.1875 16.125 5.1875H18.3002C18.9862 5.1875 19.5919 5.63488 19.7936 6.29049L22.0985 13.7812H19.136C17.9524 13.7812 16.8703 14.45 16.3409 15.5087L16.074 16.0425C15.8094 16.5719 15.2683 16.9062 14.6765 16.9062H11.3235C10.7317 16.9062 10.1906 16.5719 9.92597 16.0425L9.65907 15.5087C9.12972 14.45 8.04765 13.7812 6.86398 13.7812H3.90153L6.20638 6.29049Z" fill="#7D7D7D"/>
<path fill-rule="evenodd" clip-rule="evenodd" d="M13 2.84375C13.4315 2.84375 13.7812 3.19353 13.7812 3.625V10.3327L15.5726 8.54132C15.8777 8.23623 16.3723 8.23623 16.6774 8.54132C16.9825 8.84642 16.9825 9.34108 16.6774 9.64618L13.5524 12.7712C13.2473 13.0763 12.7527 13.0763 12.4476 12.7712L9.32257 9.64618C9.01748 9.34108 9.01748 8.84642 9.32257 8.54132C9.62767 8.23623 10.1223 8.23623 10.4274 8.54132L12.2188 10.3327V3.625C12.2188 3.19353 12.5685 2.84375 13 2.84375Z" fill="#7D7D7D"/>
</g>
</g>
<defs>
<clipPath id="clip0_28_69">
<rect width="25" height="25" fill="white" transform="translate(0.5 0.5)"/>
</clipPath>
<clipPath id="clip1_28_69">
<rect width="25" height="25" fill="white" transform="translate(0.5 0.5)"/>
</clipPath>
</defs>
</svg>
