<svg width="391" height="395" viewBox="0 0 391 395" fill="none" xmlns="http://www.w3.org/2000/svg">
<path d="M6 385.829V374.416V359.831V340.174L31.0667 324.955L55.35 314.176L83.55 300.859L108.617 294.518L131.333 285.641L143.867 279.3C143.867 276.975 143.867 271.944 143.867 270.422C143.867 268.9 143.867 263.024 143.867 260.276L120.367 251.399L92.95 238.083L68.6667 217.791L47.5167 193.695L31.0667 163.258V136.626V109.359L38.9 77.0199L68.6667 40.2417L108.617 18.048L150.133 6H187.733H227.683L282.517 24.3891L315.417 52.9238L345.183 96.043V144.869L336.567 187.354L307.583 217.791L269.2 245.058L237.867 260.276V270.422L248.833 285.641L282.517 300.859L325.6 314.176L351.45 331.296L370.25 351.588V366.806L382 385.829L376.517 389" stroke="white" stroke-width="12"/>
</svg>
