<svg width="70" height="78" viewBox="0 0 70 78" fill="none" xmlns="http://www.w3.org/2000/svg">
<path d="M22.1597 77.1559L21.2835 75.2878L20.1638 72.9009L18.6547 69.6837L20.4698 65.7936L22.5324 62.6736L24.8665 58.9198L27.3631 56.4826L29.3853 53.7614L30.3902 52.0239C30.2117 51.6433 29.8255 50.82 29.7087 50.571C29.5918 50.3219 29.1407 49.3602 28.9298 48.9105L25.4513 48.7696L21.1659 48.1208L16.7179 46.1556L12.3508 43.3928L8.05623 39.3297L6.01164 34.971L3.91837 30.5085L2.36797 24.7784L3.08731 17.0973L6.13831 11.2346L10.1547 6.94496L14.6298 4.84578L19.3846 2.6154L27.3226 2.5637L33.429 5.39701L40.2821 10.7922L44.0305 18.7832L46.2665 26.2175L45.1536 32.8171L42.6785 39.4225L40.1176 43.6625L40.8965 45.323L43.3701 47.2015L48.5474 47.8117L54.6974 47.5857L59.0885 48.9446L62.8838 51.2159L64.0521 53.7066L66.911 56.164L66.5018 56.9891" stroke="white" stroke-width="4"/>
</svg>
