<svg width="203" height="216" viewBox="0 0 203 216" fill="none" xmlns="http://www.w3.org/2000/svg">
<path d="M20.4585 213.961L19.423 208.303L18.0999 201.074L16.3166 191.33L26.4775 181.674L36.6805 174.284L48.4568 165.307L59.4231 160.052L69.0774 153.737L74.2729 149.537C74.062 148.385 73.6056 145.891 73.4675 145.137C73.3295 144.383 72.7964 141.47 72.5471 140.108L60.9215 137.688L47.0898 133.398L34.068 125.386L22.1437 115.224L11.8082 101.523L9.39211 88.3222L6.91847 74.8066L7.59136 58.1164L17.9605 37.3777L34.3415 23.01L52.3643 13.5394L69.6767 10.3709L88.0712 7.00426L114.987 11.4986L132.724 22.8703L150.341 41.7353L154.771 65.9376L154.658 87.7229L144.074 105.252L128.875 122.003L115.828 132.187L116.749 137.216L123.179 143.835L140.068 148.54L161.114 151.51L174.569 157.818L185.066 166.292L186.447 173.836L193.583 182.275L191.346 184.309" stroke="white" stroke-width="13"/>
</svg>
