<svg width="191" height="218" viewBox="0 0 191 218" fill="none" xmlns="http://www.w3.org/2000/svg">
<path d="M7.2044 187.83L7.94018 182.125L8.88034 174.836L10.1475 165.012L22.7655 158.907L34.7337 154.974L48.6836 150.007L60.7293 148.339L71.8476 145.263L78.0748 142.844C78.2247 141.682 78.549 139.168 78.6471 138.407C78.7452 137.647 79.124 134.71 79.3011 133.337L68.9637 127.493L57.0942 119.196L47.129 107.601L38.8637 94.2917L33.189 78.0949L34.9058 64.7847L36.6635 51.1575L42.3848 35.4641L58.5744 18.8657L78.5515 10.166L98.6018 6.63064L116.057 8.88211L134.604 11.2743L158.874 23.7481L172.308 39.9792L183.347 63.3115L180.2 87.7137L173.461 108.431L158.044 121.907L138.467 133.236L122.94 138.965L122.286 144.036L126.396 152.299L141.052 161.921L160.194 171.156L171.091 181.261L178.511 192.528L177.53 200.134L181.758 210.344L179.008 211.601" stroke="white" stroke-width="13"/>
</svg>
