<svg width="184" height="201" viewBox="0 0 184 201" fill="none" xmlns="http://www.w3.org/2000/svg">
<path d="M7 201V195.17V187.721L7 177.681L18.7333 169.908L30.1 164.402L43.3 157.601L55.0333 154.362L65.6667 149.828L71.5333 146.589C71.5333 145.402 71.5333 142.832 71.5333 142.055C71.5333 141.278 71.5333 138.277 71.5333 136.873L60.5333 132.339L47.7 125.538L36.3333 115.174L26.4333 102.866L18.7333 87.3205V73.7179V59.7913L22.4 43.2738L36.3333 24.4891L55.0333 13.1536L74.4667 7L92.0667 7H110.767L136.433 16.3923L151.833 30.9666L165.767 52.99V77.9282L161.733 99.6277L148.167 115.174L130.2 129.1L115.533 136.873V142.055L120.667 149.828L136.433 157.601L156.6 164.402L168.7 173.147L177.5 183.511V191.284V199.072V181.841" stroke="white" stroke-width="13"/>
</svg>
