<svg width="40" height="36" viewBox="0 0 40 36" fill="none" xmlns="http://www.w3.org/2000/svg">
<path d="M1 34.7185V33.7053V32.4106V30.6656L3.46667 29.3146L5.85625 28.3576L8.63125 27.1755L11.0979 26.6126L13.3333 25.8245L14.5667 25.2616C14.5667 25.0552 14.5667 24.6086 14.5667 24.4735C14.5667 24.3384 14.5667 23.8168 14.5667 23.5728L12.2542 22.7848L9.55625 21.6026L7.16667 19.8013L5.08542 17.6623L3.46667 14.9603V12.596V10.1755L4.2375 7.30464L7.16667 4.03974L11.0979 2.06954L15.1833 1H18.8833H22.8146L28.2104 2.63245L31.4479 5.16556L34.3771 8.99338V13.3278L33.5292 17.0993L30.6771 19.8013L26.9 22.2219L23.8167 23.5728V24.4735L24.8958 25.8245L28.2104 27.1755L32.45 28.3576L34.9938 29.8775L36.8438 31.6788V33.0298L38 34.7185L37.4604 35" stroke="white" stroke-width="2"/>
</svg>
