<svg width="80" height="171" viewBox="0 0 80 171" fill="none" xmlns="http://www.w3.org/2000/svg">
<path d="M56.7905 169.575L54.4829 165.887L51.5344 161.173L47.5603 154.821L51.6048 145.447L56.3243 137.648L61.6436 128.333L67.4829 121.828L72.1419 114.922L74.4206 110.645C73.9505 109.894 72.9335 108.268 72.6258 107.776C72.3181 107.285 71.1302 105.386 70.5746 104.498L62.1036 105.805L51.6225 106.374L40.6214 104.132L29.7413 100.104L18.9144 93.1912L13.5301 84.5843L8.01757 75.7725L3.7049 63.9291L4.726 46.7531L11.5887 32.4806L20.9476 21.2084L31.6296 14.526L42.9792 7.42589L62.2749 3.62352L77.3905 6.99806L94.5646 15.6428L104.436 31.4221L110.577 46.6836L108.497 61.6711L103.105 77.3046L97.2796 87.7915L99.3308 91.0703L105.523 94.0395L118.169 92.9714L133.101 89.6179L143.906 90.5567L153.35 93.7731L156.426 98.6913L163.61 102.751L162.694 104.75" stroke="white" stroke-width="6"/>
</svg>
