<svg width="23" height="21" viewBox="0 0 23 21" fill="none" xmlns="http://www.w3.org/2000/svg">
<path d="M20.8886 2.31733C20.7493 2.34604 19.213 2.91206 17.4745 3.56831C12.596 5.41401 8.65186 6.90288 5.01319 8.2728C3.18487 8.95776 1.55421 9.5853 1.3835 9.66323C0.565926 10.0406 0.359286 10.5123 0.83995 10.9142C0.970223 11.0249 1.85518 11.308 3.84073 11.874C5.0671 12.2226 5.39952 12.28 6.08682 12.2554C6.52257 12.239 6.67979 12.2144 6.89542 12.1365C7.11554 12.0544 9.64464 10.5369 11.3651 9.45405C13.0228 8.40815 15.8663 6.706 16.1763 6.56655C16.6255 6.36967 16.931 6.31635 17.0208 6.41479C17.1151 6.51733 17.0567 6.77573 16.8726 7.04643C16.6435 7.39506 13.9302 9.81909 11.1765 12.1365C10.2466 12.9158 10.1073 13.0962 10.1073 13.4736C10.1073 13.654 10.296 13.9863 10.4937 14.1544C11.0192 14.6056 12.3849 15.4874 14.9814 17.0542C16.8816 18.2027 17.3218 18.4365 17.9013 18.6046C18.9884 18.9205 19.6892 18.6333 19.9632 17.7597C20.0351 17.53 21.1491 11.2136 21.7691 7.52631C22.4519 3.44526 22.4878 3.17045 22.353 2.79721C22.1823 2.32553 21.6433 2.14917 20.8886 2.31733Z" fill="#646363"/>
</svg>
