<svg width="15" height="15" viewBox="0 0 15 15" fill="none" xmlns="http://www.w3.org/2000/svg">
<mask id="mask0_28_128" style="mask-type:luminance" maskUnits="userSpaceOnUse" x="0" y="0" width="15" height="15">
<path d="M15 0H0V15H15V0Z" fill="white"/>
</mask>
<g mask="url(#mask0_28_128)">
<path d="M10.31 0C9.93 0 9.59 0.22 9.44 0.58C9.29 0.93 9.38 1.33 9.64 1.6L10.86 2.81L5.9 7.77C5.53 8.14 5.53 8.73 5.9 9.1C6.26 9.46 6.86 9.46 7.22 9.1L12.18 4.13L13.4 5.35C13.67 5.62 14.07 5.7 14.42 5.55C14.77 5.4 15 5.06 15 4.68V0.93C15 0.41 14.58 0 14.06 0H10.31ZM2.34 0.93C1.04 0.93 0 1.98 0 3.28V12.65C0 13.95 1.04 15 2.34 15H11.71C13.01 15 14.06 13.95 14.06 12.65V9.37C14.06 8.85 13.64 8.43 13.12 8.43C12.6 8.43 12.18 8.85 12.18 9.37V12.65C12.18 12.91 11.97 13.12 11.71 13.12H2.34C2.08 13.12 1.87 12.91 1.87 12.65V3.28C1.87 3.02 2.08 2.81 2.34 2.81H5.62C6.14 2.81 6.56 2.39 6.56 1.87C6.56 1.35 6.14 0.93 5.62 0.93H2.34Z" fill="black"/>
</g>
</svg>
