<svg width="29" height="22" viewBox="0 0 29 22" fill="none" xmlns="http://www.w3.org/2000/svg">
<path d="M28.7111 5.73637C28.7111 5.73637 28.4279 3.7758 27.5557 2.91493C26.4512 1.78191 25.2164 1.77636 24.65 1.70971C20.5945 1.4209 14.5057 1.4209 14.5057 1.4209H14.4943C14.4943 1.4209 8.40547 1.4209 4.35 1.70971C3.78359 1.77636 2.54883 1.78191 1.44434 2.91493C0.57207 3.7758 0.294531 5.73637 0.294531 5.73637C0.294531 5.73637 0 8.04128 0 10.3406V12.4956C0 14.795 0.288867 17.0999 0.288867 17.0999C0.288867 17.0999 0.57207 19.0604 1.43867 19.9213C2.54316 21.0543 3.99316 21.0155 4.63887 21.1376C6.96113 21.3543 14.5 21.4209 14.5 21.4209C14.5 21.4209 20.5945 21.4098 24.65 21.1265C25.2164 21.0599 26.4512 21.0543 27.5557 19.9213C28.4279 19.0604 28.7111 17.0999 28.7111 17.0999C28.7111 17.0999 29 14.8005 29 12.4956V10.3406C29 8.04128 28.7111 5.73637 28.7111 5.73637ZM11.5037 15.1115V7.11932L19.3371 11.1293L11.5037 15.1115Z" fill="#656363"/>
</svg>
